HIERARCHY
ROOT Hips
{
  OFFSET 0 0 0
  CHANNELS 6 Xposition Yposition Zposition Zrotation Xrotation Yrotation
  JOINT Spine
  {
    OFFSET 0 10 0
    CHANNELS 3 Zrotation Xrotation Yrotation
    JOINT Neck
    {
      OFFSET 0 30 0
      CHANNELS 3 Zrotation Xrotation Yrotation
      JOINT Head
      {
        OFFSET 0 8 0
        CHANNELS 3 Zrotation Xrotation Yrotation
        End Site
        {
          OFFSET 0 10 0
        }
      }
    }
    JOINT LeftArm
    {
      OFFSET 15 30 0
      CHANNELS 3 Zrotation Xrotation Yrotation
      JOINT LeftForeArm
      {
        OFFSET 25 0 0
        CHANNELS 3 Zrotation Xrotation Yrotation
        JOINT LeftHand
        {
          OFFSET 25 0 0
          CHANNELS 3 Zrotation Xrotation Yrotation
          End Site
          {
            OFFSET 10 0 0
          }
        }
      }
    }
    JOINT RightArm
    {
      OFFSET -15 30 0
      CHANNELS 3 Zrotation Xrotation Yrotation
      JOINT RightForeArm
      {
        OFFSET -25 0 0
        CHANNELS 3 Zrotation Xrotation Yrotation
        JOINT RightHand
        {
          OFFSET -25 0 0
          CHANNELS 3 Zrotation Xrotation Yrotation
          End Site
          {
            OFFSET -10 0 0
          }
        }
      }
    }
  }
  JOINT LeftUpLeg
  {
    OFFSET 10 -10 0
    CHANNELS 3 Zrotation Xrotation Yrotation
    JOINT LeftLeg
    {
      OFFSET 0 -35 0
      CHANNELS 3 Zrotation Xrotation Yrotation
      JOINT LeftFoot
      {
        OFFSET 0 -40 0
        CHANNELS 3 Zrotation Xrotation Yrotation
        End Site
        {
          OFFSET 0 0 15
        }
      }
    }
  }
  JOINT RightUpLeg
  {
    OFFSET -10 -10 0
    CHANNELS 3 Zrotation Xrotation Yrotation
    JOINT RightLeg
    {
      OFFSET 0 -35 0
      CHANNELS 3 Zrotation Xrotation Yrotation
      JOINT RightFoot
      {
        OFFSET 0 -40 0
        CHANNELS 3 Zrotation Xrotation Yrotation
        End Site
        {
          OFFSET 0 0 15
        }
      }
    }
  }
}
MOTION
Frames: 12
Frame Time: 0.00833333
3.54486 84.4967 4.17107 -2.45679 2.25163 -8.8512 -8.84416e-08 -5.28931e-08 4.38654e-08 1.33748e-07 5.28931e-08 5.96928e-08 -4.882e-08 3.46349e-17 3.0932e-07 -7.99999 4.82487e-07 1.75788e-05 -1.41036e-05 -4.6059e-07 -3.20004e-05 4.83688e-15 1.26952e-13 1.4489e-05 7.99999 3.49319e-06 -1.73614e-05 1.1072e-05 -6.8986e-06 2.94884e-05 2.55508e-06 3.41509e-06 -1.20742e-05 9.93923e-17 7.95139e-16 3.18055e-15 1.36135e-07 -7.033e-06 -1.01969e-06 4.67645e-07 7.74033e-06 1.94989e-07 3.41991e-06 5.21367e-08 5.63509e-08 -3.28597e-06 -6.85289e-06 -0.00795393 -1.67997e-07 7.22617e-06 1.87542e-06
3.34914 84.5106 4.06221 -2.43039 2.16416 -8.32283 3.86631 -11.5916 -1.83043 -1.25001 -5.45972 -2.22609 0.934262 4.75956 -2.58039 -27.5416 21.8452 -6.09782 18.99 -11.504 -27.0218 9.06259e-06 -32.0251 1.70898e-05 24.0074 26.4385 14.0619 -20.6172 -13.5548 28.4148 -2.89405e-06 -24.2899 -1.32469e-05 0.132667 -0.186623 -0.483968 -0.0242439 0.291774 0.0463183 0.164496 -0.0843344 -0.155733 0.123339 -0.389249 0.299543 0.101635 1.02077 -0.00793311 -0.973474 -0.97243 -0.67294
3.20306 84.5208 4.01859 -2.32255 2.44613 -7.93275 6.53609 -21.4904 -3.5257 -2.63528 -10.1449 -4.17805 2.10332 8.78726 -4.83559 -39.9449 40.0918 -13.2365 27.5381 -15.8164 -51.454 2.45461e-05 -59.4476 2.85033e-05 24.538 45.4368 33.6008 -28.8077 -17.8819 54.4625 -9.55097e-06 -45.0754 -1.7098e-05 0.179724 -0.757704 -0.553322 -0.0453721 0.543949 0.0864398 0.831948 -0.28009 -0.64718 0.158601 -1.16171 0.735 0.200517 2.0136 -0.00795885 -1.78331 -2.09528 -1.29348
3.05105 84.517 4.00768 -2.17813 2.92255 -7.28648 7.19923 -25.1751 -4.18792 -3.16195 -12.0241 -4.912 2.76893 10.1749 -5.71219 -43.0389 46.7493 -16.8856 29.8078 -15.335 -60.7105 3.92376e-05 -69.7327 4.18273e-05 20.1239 50.5072 44.8691 -30.8355 -16.7303 63.9857 -1.33611e-05 -52.8156 -1.99778e-05 0.239333 -1.54823 -0.95523 -0.0644474 0.783623 0.122073 1.0874 -0.57408 -1.15225 0.183055 -1.96888 0.884605 0.270597 2.71738 -0.00795391 -2.39596 -3.00881 -1.6904
2.89908 84.4872 3.9719 -2.08387 3.37293 -6.25486 6.64781 -24.0547 -3.89039 -2.84285 -11.7453 -4.65512 2.87177 9.53799 -5.48046 -42.4062 44.9845 -15.1554 29.2404 -15.7579 -58.2514 3.36758e-05 -66.7202 3.66605e-05 22.1071 49.4455 41.6474 -30.1814 -17.1647 61.0594 -1.20569e-05 -50.4323 -1.89551e-05 0.312185 -2.20894 -1.84047 -0.108076 1.07016 0.220399 1.36442 -0.905371 -1.45755 0.253095 -2.2815 0.70959 0.334919 3.02026 -0.007965 -2.91297 -4.03706 -2.29244
2.71539 84.4327 3.94638 -1.97547 3.73701 -5.39755 6.20095 -23.3967 -3.70063 -2.58708 -11.7216 -4.49494 3.04317 9.16063 -5.35751 -41.9292 44.0536 -14.1761 28.978 -15.9901 -57.0493 3.12844e-05 -65.1493 3.44768e-05 23.2396 48.8597 40.0686 -29.8085 -17.2743 59.4289 -1.13998e-05 -49.1326 -1.84533e-05 0.320317 -3.35902 -2.67396 -0.19373 2.16479 0.376042 2.17551 -1.44606 -1.66409 0.320337 -3.53297 0.912891 0.464426 4.5593 -0.00796236 -3.34604 -4.9215 -2.71267
2.51884 84.3187 3.87325 -1.72552 4.26042 -4.55169 5.87668 -23.2495 -3.62774 -2.39772 -11.9755 -4.44165 3.28121 9.06043 -5.35232 -41.7561 44.0673 -13.9083 29.0455 -16.0902 -57.2378 3.12844e-05 -65.1494 3.44767e-05 23.6039 48.9101 40.1602 -29.7505 -17.1811 59.2581 -1.13409e-05 -49.0127 -1.84088e-05 0.122327 -5.14004 -4.2122 -0.370662 4.18026 0.676845 3.25714 -2.12026 -1.49355 0.241705 -4.70818 1.31918 0.649329 6.14737 -0.0109121 -3.97142 -5.71387 -3.37547
2.30832 84.0592 3.74239 -1.45775 4.74184 -3.86735 5.58638 -23.0814 -3.49643 -2.23861 -12.2167 -4.37409 3.56006 8.99223 -5.35207 -41.587 44.0629 -13.6551 29.1251 -16.2093 -57.4604 3.12697e-05 -65.1391 3.44634e-05 23.9916 48.9579 40.1991 -29.6948 -17.0922 59.0949 -1.12901e-05 -48.9087 -1.83705e-05 -0.108743 -7.19348 -5.64914 -0.64349 6.93238 1.14026 4.02749 -3.00042 -1.32114 0.0761089 -7.41463 1.65411 0.987306 9.86174 -0.0528214 -4.55775 -6.59696 -4.39782
2.08999 83.5543 3.55755 -0.977941 5.07529 -2.97662 5.36516 -22.8867 -3.26076 -2.15242 -12.4232 -4.29185 3.90926 8.95121 -5.37253 -41.4546 44.0556 -13.4086 29.2171 -16.3486 -57.7199 3.12184e-05 -65.1032 3.44169e-05 24.4102 49.0084 40.1632 -29.6386 -17.003 58.9311 -1.12507e-05 -48.8278 -1.83408e-05 -0.640672 -9.80418 -6.97469 -1.09405 11.019 1.86829 4.51114 -4.56967 -1.28264 -0.591969 -10.2143 0.912635 1.49578 14.6861 -0.142874 -4.60757 -8.07764 -5.12606
1.84923 82.6551 3.33486 -0.583663 5.59326 -2.22063 5.14934 -22.7066 -3.00167 -2.06422 -12.6239 -4.18564 4.27692 8.94864 -5.37521 -41.3748 43.9936 -13.1352 29.3168 -16.5008 -58.0033 3.11313e-05 -65.042 3.43379e-05 24.8255 49.0735 40.1203 -29.5834 -16.9158 58.7707 -1.12143e-05 -48.753 -1.83135e-05 -1.01294 -13.8561 -7.97457 -1.91092 17.2973 3.06144 4.65222 -6.77003 -1.64246 -1.23081 -14.0635 0.209952 2.15832 20.8515 -0.327785 -4.97462 -9.90378 -5.84942
1.6675 81.2498 3.0846 -0.493656 6.32089 -1.3376 4.94162 -22.5967 -2.7847 -1.90931 -12.8455 -4.03652 4.60166 9.00582 -5.31012 -41.4125 43.8167 -12.7707 29.419 -16.6584 -58.2952 3.10036e-05 -64.9518 3.42221e-05 25.153 49.172 40.1784 -29.526 -16.8258 58.6045 -1.11765e-05 -48.6749 -1.8285e-05 -1.20401 -18.8312 -9.37191 -3.13938 24.8674 4.71351 4.02041 -9.45907 -2.30891 -1.74478 -18.162 -0.682018 2.92416 27.3572 -0.620526 -4.08727 -13.2036 -6.40887
1.50602 79.3089 2.85611 -0.941651 7.45869 -0.560865 4.66238 -22.5234 -2.59566 -1.71189 -13.0716 -3.86743 4.92458 9.08971 -5.21827 -41.4938 43.5684 -12.3723 29.5232 -16.8208 -58.5954 3.08347e-05 -64.8315 3.40692e-05 25.4889 49.2931 40.2476 -29.4714 -16.7405 58.4471 -1.11333e-05 -48.5854 -1.82526e-05 -0.682279 -24.5569 -10.2612 -4.8445 32.9269 6.8331 2.15099 -12.6888 -3.71682 -1.55578 -23.142 -0.794892 3.91123 34.7185 -1.10477 -3.98042 -16.8767 -7.44864
